HIERARCHY
ROOT hip
{
  OFFSET 0 0 0
  CHANNELS 6 Xposition Yposition Zposition Zrotation Yrotation Xrotation
  JOINT abdomen
  {
    OFFSET 0 20.6881 -0.73152
    CHANNELS 3 Zrotation Xrotation Yrotation
    JOINT chest
    {
      OFFSET 0 11.7043 -0.48768
      CHANNELS 3 Zrotation Xrotation Yrotation
      JOINT neck
      {
        OFFSET 0 22.1894 -2.19456
        CHANNELS 3 Zrotation Xrotation Yrotation
        JOINT head
        {
          OFFSET -0.24384 7.07133 1.2192
          CHANNELS 3 Zrotation Xrotation Yrotation
          JOINT leftEye
          {
            OFFSET 4.14528 8.04674 8.04672
            CHANNELS 3 Zrotation Xrotation Yrotation
            End Site
            {
              OFFSET 1 0 0
            }
          }
          JOINT rightEye
          {
            OFFSET -3.6576 8.04674 8.04672
            CHANNELS 3 Zrotation Xrotation Yrotation
            End Site
            {
              OFFSET 1 0 0
            }
          }
        }
      }
      JOINT rCollar
      {
        OFFSET -2.68224 19.2634 -4.8768
        CHANNELS 3 Zrotation Xrotation Yrotation
        JOINT rShldr
        {
          OFFSET -8.77824 -1.95073 1.46304
          CHANNELS 3 Zrotation Xrotation Yrotation
          JOINT rForeArm
          {
            OFFSET -28.1742 -1.7115 0.48768
            CHANNELS 3 Zrotation Xrotation Yrotation
            JOINT rHand
            {
              OFFSET -22.5879 0.773209 7.07136
              CHANNELS 3 Zrotation Xrotation Yrotation
              JOINT rThumb1
              {
                OFFSET -1.2192 -0.487915 3.41376
                CHANNELS 3 Zrotation Xrotation Yrotation
                JOINT rThumb2
                {
                  OFFSET -3.37035 -0.52449 3.41376
                  CHANNELS 3 Zrotation Xrotation Yrotation
                  End Site
                  {
                    OFFSET -1.78271 -1.18214 1.43049
                  }
                }
              }
              JOINT rIndex1
              {
                OFFSET -7.75947 0.938293 5.60832
                CHANNELS 3 Zrotation Xrotation Yrotation
                JOINT rIndex2
                {
                  OFFSET -2.54057 -0.884171 1.56538
                  CHANNELS 3 Zrotation Xrotation Yrotation
                  End Site
                  {
                    OFFSET -1.62519 -0.234802 1.16502
                  }
                }
              }
              JOINT rMid1
              {
                OFFSET -8.24714 1.18213 3.41376
                CHANNELS 3 Zrotation Xrotation Yrotation
                JOINT rMid2
                {
                  OFFSET -3.10165 -0.590103 1.0647
                  CHANNELS 3 Zrotation Xrotation Yrotation
                  End Site
                  {
                    OFFSET -2.48547 -0.328903 0.83742
                  }
                }
              }
              JOINT rRing1
              {
                OFFSET -8.82822 0.546677 1.51678
                CHANNELS 3 Zrotation Xrotation Yrotation
                JOINT rRing2
                {
                  OFFSET -2.60934 -0.819778 -0.0198488
                  CHANNELS 3 Zrotation Xrotation Yrotation
                  End Site
                  {
                    OFFSET -2.33842 -0.294052 0.168128
                  }
                }
              }
              JOINT rPinky1
              {
                OFFSET -8.27202 -0.0477905 -0.4584
                CHANNELS 3 Zrotation Xrotation Yrotation
                JOINT rPinky2
                {
                  OFFSET -1.82734 -0.647385 -0.700984
                  CHANNELS 3 Zrotation Xrotation Yrotation
                  End Site
                  {
                    OFFSET -1.69225 -0.51767 -0.607171
                  }
                }
              }
            }
          }
        }
      }
      JOINT lCollar
      {
        OFFSET 2.68224 19.2634 -4.8768
        CHANNELS 3 Zrotation Xrotation Yrotation
        JOINT lShldr
        {
          OFFSET 8.77824 -1.95073 1.46304
          CHANNELS 3 Zrotation Xrotation Yrotation
          JOINT lForeArm
          {
            OFFSET 28.1742 -1.7115 0.48768
            CHANNELS 3 Zrotation Xrotation Yrotation
            JOINT lHand
            {
              OFFSET 22.5879 0.773209 7.07136
              CHANNELS 3 Zrotation Xrotation Yrotation
              JOINT lThumb1
              {
                OFFSET 1.2192 -0.487915 3.41376
                CHANNELS 3 Zrotation Xrotation Yrotation
                JOINT lThumb2
                {
                  OFFSET 3.37035 -0.52449 3.41376
                  CHANNELS 3 Zrotation Xrotation Yrotation
                  End Site
                  {
                    OFFSET 1.78271 -1.18214 1.43049
                  }
                }
              }
              JOINT lIndex1
              {
                OFFSET 7.75947 0.938293 5.60832
                CHANNELS 3 Zrotation Xrotation Yrotation
                JOINT lIndex2
                {
                  OFFSET 2.54057 -0.884171 1.56538
                  CHANNELS 3 Zrotation Xrotation Yrotation
                  End Site
                  {
                    OFFSET 1.62519 -0.234802 1.16502
                  }
                }
              }
              JOINT lMid1
              {
                OFFSET 8.24714 1.18213 3.41376
                CHANNELS 3 Zrotation Xrotation Yrotation
                JOINT lMid2
                {
                  OFFSET 3.10165 -0.590103 1.0647
                  CHANNELS 3 Zrotation Xrotation Yrotation
                  End Site
                  {
                    OFFSET 2.48547 -0.328903 0.83742
                  }
                }
              }
              JOINT lRing1
              {
                OFFSET 8.82822 0.546677 1.51678
                CHANNELS 3 Zrotation Xrotation Yrotation
                JOINT lRing2
                {
                  OFFSET 2.60934 -0.819778 -0.0198488
                  CHANNELS 3 Zrotation Xrotation Yrotation
                  End Site
                  {
                    OFFSET 2.33842 -0.294052 0.168128
                  }
                }
              }
              JOINT lPinky1
              {
                OFFSET 8.27202 -0.0477905 -0.4584
                CHANNELS 3 Zrotation Xrotation Yrotation
                JOINT lPinky2
                {
                  OFFSET 1.82734 -0.647385 -0.700984
                  CHANNELS 3 Zrotation Xrotation Yrotation
                  End Site
                  {
                    OFFSET 1.69225 -0.51767 -0.607171
                  }
                }
              }
            }
          }
        }
      }
    }
  }
  JOINT rButtock
  {
    OFFSET -8.77824 4.35084 1.2192
    CHANNELS 3 Zrotation Xrotation Yrotation
    JOINT rThigh
    {
      OFFSET 0 -1.70687 -2.19456
      CHANNELS 3 Zrotation Xrotation Yrotation
      JOINT rShin
      {
        OFFSET 0 -36.8199 0.73152
        CHANNELS 3 Zrotation Xrotation Yrotation
        JOINT rFoot
        {
          OFFSET 0.73152 -45.1104 -5.12064
          CHANNELS 3 Zrotation Xrotation Yrotation
          End Site
          {
            OFFSET -1.1221 -3.69964 12.103
          }
        }
      }
    }
  }
  JOINT lButtock
  {
    OFFSET 8.77824 4.35084 1.2192
    CHANNELS 3 Zrotation Xrotation Yrotation
    JOINT lThigh
    {
      OFFSET 0 -1.70687 -2.19456
      CHANNELS 3 Zrotation Xrotation Yrotation
      JOINT lShin
      {
        OFFSET 0 -36.8199 0.73152
        CHANNELS 3 Zrotation Xrotation Yrotation
        JOINT lFoot
        {
          OFFSET -0.73152 -45.1104 -5.12064
          CHANNELS 3 Zrotation Xrotation Yrotation
          End Site
          {
            OFFSET 1.1221 -3.69964 12.103
          }
        }
      }
    }
  }
}
MOTION
Frames:	4
Frame Time:	0.03333
0.004313141107559204 59.31118130683899 0.2078380435705185 -2.620434284210205 2.5598459243774414 5.736295223236084 -3.0283217430114746 14.729923248291016 3.51997971534729 3.1730120182037354 -9.436973571777344 0.9961451888084412 -5.924404621124268 14.45011043548584 -5.022506237030029 8.843640327453613 -24.8194637298584 -7.602515697479248 -0.05395196005702019 0.07664140313863754 -0.023220792412757874 -0.06662944704294205 -0.09846965223550797 -0.026912756264209747 -0.029610944911837578 0.07338593155145645 0.07869265973567963 51.486942291259766 39.50075149536133 11.236384391784668 -28.192989349365234 -32.00363540649414 70.4612045288086 -0.11785723268985748 1.9179859161376953 0.2440340518951416 0.05603228881955147 -0.0469437837600708 -0.03875749558210373 0.052221473306417465 -0.01213216595351696 0.0687030479311943 0.02191959135234356 -0.07207369804382324 -0.03305806592106819 7.73089599609375 5.43946647644043 0.4710673689842224 0.09010870009660721 -0.029000522568821907 -0.008078756742179394 2.932149648666382 1.09243905544281 0.11056105047464371 0.06259539723396301 0.08336815983057022 0.03245219215750694 10.233659744262695 0.7676922678947449 0.011681624688208103 0.06337998807430267 -0.018653875216841698 0.04047146812081337 2.2388205528259277 -0.6242383122444153 -0.2751009166240692 -0.01897507905960083 0.09038873016834259 -0.08361824601888657 -56.69186019897461 36.49131393432617 -24.1964168548584 28.347929000854492 -33.5579719543457 -73.02999877929688 0.19786423444747925 -17.827329635620117 2.495748996734619 -0.0023556151427328587 0.025890890508890152 -0.0501396507024765 0.07043015956878662 -0.026219546794891357 -0.11087089776992798 0.041608776897192 0.026718515902757645 -0.030780009925365448 -7.74971342086792 5.487564563751221 -0.3857215940952301 0.09075448662042618 -0.005727550480514765 0.016944870352745056 -2.9864883422851562 0.9689583778381348 -0.07470843195915222 -0.0039911409839987755 0.03749899938702583 -0.031375639140605927 -10.264220237731934 0.7573826313018799 -0.10259494185447693 -0.03943892568349838 0.021933499723672867 0.029308466240763664 -2.195058584213257 -0.665871262550354 0.11702493578195572 -0.012393834069371223 0.05447157472372055 0.07614368945360184 -30.82044219970703 -46.527374267578125 -25.668933868408203 -1.7707595825195312 67.88965606689453 2.483302593231201 -3.7889392375946045 -11.456412315368652 -10.648868560791016 -0.010655410587787628 -0.061148662120103836 0.09630397707223892 35.41176223754883 -44.45595932006836 27.254396438598633 1.9353748559951782 68.84031677246094 -3.0114214420318604 4.517819404602051 -12.064021110534668 14.492301940917969
0.07322626188397408 63.45432996749878 0.2730928361415863 -3.503798723220825 4.527461051940918 5.834751129150391 -3.7932443618774414 15.003571510314941 3.6498289108276367 3.2300190925598145 -9.468308448791504 1.0626245737075806 -5.849856376647949 14.703885078430176 -5.380062103271484 9.032772064208984 -25.18230628967285 -8.68457317352295 -0.057942770421504974 0.02459953911602497 0.0352950319647789 0.02064467780292034 -0.022910496219992638 -0.016453171148896217 -0.06177151948213577 0.09432363510131836 0.031681232154369354 52.999935150146484 39.35844421386719 10.82697868347168 -28.25949478149414 -31.992246627807617 70.30293273925781 -0.5962116122245789 1.906004786491394 0.09434368461370468 -0.05896022543311119 0.04098548740148544 -0.032340068370103836 0.05819135904312134 -0.04971885308623314 -0.014530998654663563 -0.0034886987414211035 -0.08573529869318008 0.01844589039683342 7.711574554443359 5.393138408660889 0.4543519616127014 0.006742208264768124 -0.021793270483613014 0.0321737602353096 2.92240309715271 0.9201098084449768 0.09390353411436081 0.0700116977095604 0.05124326050281525 0.09819992631673813 10.221070289611816 0.7101662158966064 0.07148739695549011 -0.07470013946294785 -0.055790975689888 0.016464006155729294 2.2252891063690186 -0.6106374263763428 -0.2224143147468567 0.022942818701267242 0.08867421746253967 -0.04440075159072876 -57.13497543334961 35.33478927612305 -23.739564895629883 28.16106414794922 -32.861549377441406 -72.05790710449219 -0.11344267427921295 -16.742767333984375 2.17388653755188 -0.016623079776763916 0.032026298344135284 0.0241254772990942 -0.01830606535077095 -0.013288704678416252 -0.04935643821954727 0.09646794945001602 0.01906740851700306 -0.0174089465290308 -7.692920207977295 5.57564115524292 -0.3635284900665283 0.00497403834015131 0.069735087454319 0.0418173111975193 -2.993143320083618 1.0241140127182007 -0.04263424500823021 -0.05829121917486191 -0.07742331176996231 -0.021596865728497505 -10.30514907836914 0.702405571937561 -0.07112634181976318 -0.06407216191291809 0.034376226365566254 0.047519437968730927 -2.1467630863189697 -0.7300388813018799 0.22013287246227264 -0.029110727831721306 0.014252646826207638 0.039789773523807526 -32.03926086425781 -47.01927947998047 -26.476856231689453 -1.8587002754211426 68.11614990234375 2.6566879749298096 -3.5841987133026123 -11.29775333404541 -9.666181564331055 0.06292381137609482 0.009677438996732235 0.04676227271556854 34.63949966430664 -43.340614318847656 25.938636779785156 1.7506850957870483 67.93213653564453 -2.926717758178711 4.37412691116333 -12.306448936462402 14.687668800354004
0.155586376786232 65.98450541496277 0.3395112231373787 -2.314549446105957 4.493675231933594 4.890277862548828 -6.0655388832092285 7.8443403244018555 8.57586669921875 1.0595180988311768 -7.833737373352051 2.342679500579834 -6.545390605926514 13.927172660827637 -6.415869235992432 8.326780319213867 -21.66789436340332 -11.638416290283203 -0.06560028344392776 0.006696746684610844 -0.016098905354738235 0.014227649196982384 0.026448305696249008 -0.02932017296552658 0.039570100605487823 0.03208506852388382 0.011357584036886692 -16.0050048828125 41.40116500854492 83.53285217285156 -28.273120880126953 -36.4053955078125 77.4044418334961 -0.43922701478004456 -4.891600608825684 -0.5717188715934753 -0.05211986228823662 0.04188795015215874 0.022579777985811234 0.06641129404306412 -0.0446011908352375 0.000314251083182171 0.08783785998821259 -0.014037844724953175 -0.1093113049864769 7.73551082611084 5.4370574951171875 0.3808218836784363 0.09294899553060532 0.018611367791891098 0.046558309346437454 2.8654608726501465 0.9878016710281372 0.05956721678376198 0.07230785489082336 0.048876017332077026 0.026229197159409523 10.161652565002441 0.6835266351699829 0.02402522973716259 0.04411444813013077 0.06900736689567566 0.001244324492290616 2.2042582035064697 -0.6711648106575012 -0.1711956113576889 -0.05225681886076927 0.06721936911344528 -0.03048408031463623 -51.24737548828125 57.59783172607422 -20.292818069458008 28.247859954833984 -39.4754753112793 -83.20003509521484 -0.16618117690086365 -10.506836891174316 1.3553420305252075 -0.020060725510120392 0.06008843705058098 0.04172125086188316 -0.014108424074947834 0.020838335156440735 0.04160615801811218 -0.0676063597202301 0.010160457342863083 -0.014853383414447308 -7.749729633331299 5.471993446350098 -0.40260738134384155 -0.0016599035589024425 0.050349149852991104 0.011334523558616638 -3.000182628631592 0.9978314638137817 -0.12210981547832489 0.034904420375823975 0.09852508455514908 -0.027641957625746727 -10.272336959838867 0.7631320953369141 -0.03038555383682251 -0.016638029366731644 0.09415986388921738 -0.03491924703121185 -2.159492254257202 -0.7182280421257019 0.30849501490592957 -0.03778891637921333 0.01918489672243595 0.004323879256844521 2.262439012527466 -35.58967971801758 -0.4069894850254059 -1.0700136423110962 56.26134490966797 1.75855553150177 -1.0028648376464844 -17.008514404296875 0.2066458761692047 -0.019671611487865448 0.055509258061647415 0.09085902571678162 -5.254443645477295 -29.7539005279541 -6.921964168548584 0.6782118082046509 49.38574981689453 -1.3619780540466309 4.531548976898193 -14.27692985534668 10.993611335754395
0.2619613893330097 69.68252658843994 0.5268597975373268 -1.888961911201477 3.1735730171203613 4.140244007110596 -5.845109462738037 7.133837699890137 9.01150894165039 0.43887510895729065 -7.202169418334961 2.736922264099121 -6.737519264221191 13.579021453857422 -6.643507480621338 8.401809692382812 -21.436424255371094 -11.541193962097168 -0.10633724927902222 0.004702669568359852 0.04561310634016991 0.004834285005927086 0.008851373568177223 0.01944720186293125 0.03966589644551277 0.03229396417737007 0.03560721129179001 -20.38654899597168 40.657630920410156 86.32312774658203 -28.31380271911621 -37.644840240478516 79.86014556884766 -0.20700915157794952 -3.808992385864258 -0.37442800402641296 -0.06882386654615402 0.0016778017161414027 -0.033952441066503525 0.021865062415599823 -0.03301883861422539 -0.019979484379291534 0.12133942544460297 -0.01726694405078888 -0.13534440100193024 7.7677764892578125 5.438518047332764 0.43133819103240967 0.1596270203590393 0.020361723378300667 -0.022013921290636063 2.8947479724884033 1.0487444400787354 0.04415230453014374 0.06587979197502136 0.10495875775814056 0.0036625221837311983 10.180219650268555 0.7225841283798218 0.031958092004060745 0.11838944256305695 0.1158694326877594 -0.01151137612760067 2.145509958267212 -0.6987665891647339 -0.1465822458267212 -0.03536491096019745 0.10188613086938858 0.027951864525675774 -50.510746002197266 58.4537353515625 -19.634241104125977 28.174287796020508 -39.8464241027832 -83.61002349853516 -0.0851006805896759 -8.487685203552246 1.1203880310058594 0.010911780409514904 0.08344130963087082 0.03507186099886894 0.032429177314043045 0.008275476284325123 0.003764326684176922 -0.14306092262268066 0.003069191472604871 -0.02214669995009899 -7.713149547576904 5.428938865661621 -0.45618000626564026 -0.050414033234119415 0.019194478169083595 -0.056171953678131104 -3.0007686614990234 1.005358099937439 -0.1966390162706375 0.06958989053964615 0.1406582146883011 0.008592174388468266 -10.250696182250977 0.8132266402244568 -0.0048184581100940704 -0.015788380056619644 0.03285254165530205 -0.10348330438137054 -2.152787446975708 -0.7363599538803101 0.3238385319709778 -0.025903964415192604 0.043488554656505585 -0.014820575714111328 4.855201721191406 -34.1673469543457 0.12012272328138351 -0.8292055130004883 54.47743225097656 1.2449913024902344 -0.49034583568573 -17.893808364868164 0.7332320809364319 -0.03790675103664398 0.0032667198684066534 0.05375693738460541 -8.693591117858887 -31.106536865234375 -8.853696823120117 0.5718019604682922 48.838497161865234 -1.0338531732559204 4.291553497314453 -15.504798889160156 9.793784141540527
